<svg xml:space="preserve" viewBox="0 282.96000000000004 1095.1200000000001 542.16" version="1.1" xmlns:xlink="http://www.w3.org/1999/xlink" xmlns="http://www.w3.org/2000/svg" style="max-height: 500px" width="1095.1200000000001" height="542.16">
<desc>Created with Fabric.js 5.2.4</desc>
<defs>
</defs>
<g id="c15383ef-c659-4aa6-957c-de8dd7ee0b1c" transform="matrix(1 0 0 1 540 540)">
<rect height="1080" width="1080" ry="0" rx="0" y="-540" x="-540" style="stroke: none; stroke-width: 1; stroke-dasharray: none; stroke-linecap: butt; stroke-dashoffset: 0; stroke-linejoin: miter; stroke-miterlimit: 4; fill: rgb(255,255,255); fill-rule: nonzero; opacity: 1; visibility: hidden;"/>
</g>
<g id="c70655c5-ce76-4609-81d0-f3cde79d2a6e" transform="matrix(1 0 0 1 540 540)">
</g>
<g transform="matrix(45 0 0 45 540 519.84)">
<path stroke-linecap="round" d="M 13.44 11.68 C 12.893299257988568 11.680809179088056 12.399998862236144 11.352053887118341 12.190318045008246 10.847161511484398 C 11.980637227780349 10.342269135850454 12.095912257392861 9.760773658657873 12.482345226839648 9.374054230375322 C 12.868778196286435 8.98733480209277 13.450188093292095 8.871628907206379 13.955235706956426 9.080935533997337 C 14.460283320620759 9.290242160788296 14.789404065366849 9.783298808472283 14.789 10.33 C 14.789 11.07558441227157 14.18458441227157 11.68 13.439 11.68 M 13.439 7.88 C 12.085902362914556 7.88 10.988999999999999 8.976902362914556 10.988999999999999 10.33 C 10.988999999999999 11.683097637085444 12.085902362914556 12.780000000000001 13.439 12.780000000000001 C 14.792097637085444 12.780000000000001 15.889 11.683097637085444 15.889 10.33 C 15.886797740929026 8.977815619023168 14.791184380976832 7.882202259070972 13.439 7.88 M 17.509 8.51 L 17.479 8.54 L 17.445999999999998 8.572 L 17.423 8.532 L 17.404 8.5 C 17.22694360850914 8.171420878276885 16.903741085949942 7.947036598247283 16.534 7.896 L 16.442999999999998 7.878 L 16.442999999999998 12.780000000000001 L 16.534999999999997 12.768 C 17.11795819669763 12.700149703240239 17.554142716908352 12.200787663237088 17.542999999999996 11.614 L 17.542999999999996 10.33 C 17.547920085975708 9.640651130089239 18.067837453711512 9.064015504054982 18.752999999999997 8.988 L 18.826999999999998 8.979 L 18.826999999999998 7.881 L 18.738999999999997 7.891 C 18.268919090827975 7.9529660062530025 17.83364293681716 8.172190109730515 17.503999999999998 8.513000000000002 M 2.4479999999999986 11.683 C 1.901480687770838 11.683404529579509 1.408550240305874 11.354500550475098 1.199125991950371 10.84969860269325 C 0.9897017435948678 10.344896654911402 1.1050406044673509 9.76364352530145 1.4913451198262857 9.377052858449657 C 1.8776496351852205 8.990462191597864 2.4588172008971583 8.874692963937035 2.963774081907597 9.083743366002723 C 3.4687309629180354 9.29279376806841 3.797999850285108 9.78548053805597 3.797999999999999 10.332 C 3.7979999999999983 11.077584412271571 3.1935844122715693 11.682 2.4479999999999986 11.682 M 4.02 8.364 L 4 8.39 L 3.979 8.417 L 3.951 8.397 L 3.9250000000000003 8.377 C 3.073999012915306 7.732415064469982 1.9035795924369907 7.713077782790744 1.0317496415540166 8.329198676670147 C 0.1599196906710425 8.94531957054955 -0.21259307200245336 10.055044668013286 0.11090651021709563 11.072414040186018 C 0.43440609243664463 12.089783412358752 1.3794363697208625 12.780560746462623 2.4469999999999983 12.780000000000001 C 2.9811243493784874 12.781656067724967 3.500791024391756 12.606558635954595 3.925 12.282000000000002 L 3.9509999999999996 12.263000000000002 L 3.9789999999999996 12.241000000000001 L 3.9989999999999997 12.271 L 4.018999999999999 12.298 C 4.206299029322204 12.555565056682306 4.490497933262738 12.725651058913554 4.805999999999999 12.769 L 4.895999999999999 12.782 L 4.895999999999999 7.88 L 4.805999999999999 7.8919999999999995 C 4.4910219632420745 7.935360643534226 4.207255096895538 8.105043120866126 4.02 8.362 M 21.55 11.682 C 20.803993726966308 11.681447811637724 20.19963210695384 11.07634021336339 20.20000016442642 10.330333826761166 C 20.200368221899 9.584327440158944 20.805326631906446 8.979816484596768 21.551333086629615 8.980000411157233 C 22.29733954135278 8.980184337717697 22.901999795637145 9.584993522603478 22.902 10.331 C 22.902000098275895 10.689215589685638 22.759631100784915 11.032745005626705 22.50624066670837 11.28594788201704 C 22.25285023263182 11.539150758407372 21.90921549140976 11.681265344881261 21.551000000000002 11.681 M 23.909000000000002 7.8919999999999995 C 23.593685503342993 7.935951083604147 23.309508938886445 8.105447257835843 23.121000000000002 8.362 L 23.102000000000004 8.389 L 23.082000000000004 8.418 L 23.054000000000006 8.396999999999998 L 23.028000000000006 8.376999999999999 C 22.177432841272392 7.730033275635482 21.00565103878542 7.709013281020938 20.13242736709501 8.32505780306495 C 19.259203695404597 8.941102325108963 18.886019709312976 10.052069536748434 19.210257953922785 11.070352402495113 C 19.534496198532597 12.08863526824179 20.481344197077302 12.779282284064706 21.550000000000004 12.777 C 22.084007975092476 12.778943063679442 22.603662983807574 12.604201156148047 23.028000000000006 12.28 L 23.054000000000006 12.26 L 23.082000000000004 12.238999999999999 L 23.102000000000004 12.267 L 23.122000000000003 12.295 C 23.30911048084705 12.552941750310401 23.59333603071968 12.723404850106949 23.909000000000002 12.767 L 23.999000000000002 12.779 L 23.999000000000002 7.879 Z M 7.978 8.98 C 8.72400546694438 8.981104580197185 9.32791878026505 9.586659220994635 9.326998603258993 10.33266493818626 C 9.326078426252938 11.078670655377886 8.720673083721968 11.682733635730296 7.974667161865249 11.681997861971592 C 7.228661240008532 11.68126208821289 6.624448629533605 11.076006080939642 6.625 10.33 C 6.624997538329985 9.971089747213504 6.767915424430277 9.62695205254182 7.02217197248517 9.37363372053141 C 7.276428520540062 9.120315388521002 7.621092208875078 8.978670702758984 7.98 8.98 M 9.51 12.241 C 10.50871516662988 11.445320399349638 10.726565311632331 10.014916347263553 10.010000000000002 8.958 C 9.97510658521002 8.905257967871478 9.937731259517024 8.854200603308724 9.898 8.805 C 10.183485665034516 8.615241197189304 10.374187614338839 8.312447262416029 10.422 7.973 L 10.436 7.881 L 7.968 7.881 C 6.929100045648292 7.882997262545149 6.0046115004409195 8.54052565904455 5.661810628690457 9.521242063789966 C 5.319009756939995 10.501958468535385 5.632568184948884 11.592235394204874 6.443999999999999 12.241 C 6.338858016467065 12.323996608237152 6.240849072509494 12.415650023405666 6.150999999999998 12.515000000000002 L 6.897 13.338000000000001 C 7.222414985122976 12.899858327925408 7.779488215299477 12.700544356102002 8.308987318197996 12.832808249060626 C 8.838486421096515 12.96507214201925 9.236399451315602 13.402932694621521 9.317558762632821 13.94263279980719 C 9.398718073950038 14.482332904992859 9.147181169369004 15.017856787538815 8.68 15.3 L 9.427999999999999 16.123 C 10.037490855626714 15.670659907868036 10.402573040308637 14.961098686367347 10.416278350730648 14.202216069285642 C 10.429983661152662 13.443333452203937 10.090760337902685 12.721052574987244 9.498 12.247000000000002" transform="translate(-12, -12)" style="stroke: none; stroke-width: 1; stroke-dasharray: none; stroke-linecap: butt; stroke-dashoffset: 0; stroke-linejoin: miter; stroke-miterlimit: 4; fill: rgb(0,0,0); fill-rule: nonzero; opacity: 1;"/>
</g>
<g transform="matrix(9.13 0 0 9.13 762.03 647.31)">
<path stroke-linecap="round" d="M 29.032 15.093 C 28.178 14.682 27.181 14.33 26 14 C 27.18 13.669 28.178 13.318 29.032 12.907 C 30.854 12.031 32.02 10.877 32.907 9.043 C 33.319 8.189 33.67 7.189 34 6 C 34.33 7.189 34.68 8.19 35.093 9.043 C 35.980000000000004 10.878 37.146 12.030999999999999 38.968 12.907 C 39.821000000000005 13.318 40.819 13.669 42 14 C 40.82 14.331 39.822 14.682 38.968 15.093 C 37.146 15.97 35.980000000000004 17.123 35.093 18.957 C 34.681000000000004 19.811 34.329 20.811 34 22 C 33.67 20.811 33.32 19.81 32.907 18.957 C 32.019999999999996 17.122 30.853999999999996 15.969000000000001 29.031999999999996 15.093 M 32.721999999999994 15.239 C 32.250315779457516 14.773079617358647 31.73115326108468 14.35781663461885 31.172999999999995 14 C 31.73154938752415 13.64192599104413 32.25105110131824 13.226324620008858 32.723 12.759999999999998 C 33.20391761718632 12.28049159190066 33.63203150791164 11.750797036422192 34 11.180000000000003 C 34.367533441509515 11.752000298793515 34.79604069121408 12.28243728551701 35.278 12.762000000000002 C 35.751999999999995 13.232000000000001 36.268 13.64 36.827 14.001000000000001 C 36.268450612475846 14.35907400895587 35.74894889868175 14.774675379991148 35.276999999999994 15.241000000000009 C 34.79613891264482 15.720194770336505 34.36802690587322 16.249551746603036 34 16.82 C 33.63183441356187 16.248456355253982 33.20337997365408 15.71808474028205 32.721999999999994 15.237999999999996 M 9.304 29.064 C 8.218180399817305 28.6628515194489 7.115859460168023 28.30786681007031 5.999999999999993 27.999999999999986 C 7.11585946016803 27.692133189929677 8.21818039981731 27.3371484805511 9.304000000000004 26.936 C 14.387 25.03 17.011 22.459 18.936 17.323999999999998 C 19.33885919837531 16.23200803442686 19.693863703824885 15.122952605747932 20 14.000000000000002 C 20.306136296175115 15.12295260574793 20.661140801624697 16.23200803442687 21.064000000000007 17.324000000000005 C 22.989 22.458999999999996 25.614 25.029999999999998 30.695999999999998 26.936 C 31.697999999999997 27.312 32.794 27.662 34 28 C 32.88414053983197 28.307866810070323 31.781819600182693 28.6628515194489 30.695999999999998 29.064 C 25.613 30.97 22.989 33.541 21.064 38.676 C 20.66114080162469 39.76799196557314 20.306136296175115 40.87704739425207 20 42 C 19.693863703824885 40.87704739425207 19.338859198375303 39.767991965573124 18.935999999999993 38.67599999999999 C 17.011 33.541000000000004 14.386 30.970000000000002 9.304 29.064 M 16.707 31.234 C 15.364 29.900000000000002 13.791 28.864 11.942 28 C 13.791 27.136 15.364 26.1 16.707 24.767 C 18.062 23.422 19.119 21.837 20 19.959 C 20.88 21.837 21.938 23.422 23.293 24.767 C 24.636 26.099999999999998 26.209 27.136 28.058 28 C 26.209 28.864 24.636 29.9 23.293 31.233 C 21.938 32.578 20.881 34.163000000000004 20 36.041 C 19.12 34.163 18.062 32.577999999999996 16.707 31.233999999999995" transform="translate(-24, -24)" style="stroke: none; stroke-width: 1; stroke-dasharray: none; stroke-linecap: butt; stroke-dashoffset: 0; stroke-linejoin: miter; stroke-miterlimit: 4; fill: rgb(0,0,0); fill-rule: evenodd; opacity: 1;"/>
</g>
</svg>